<svg xmlns="http://www.w3.org/2000/svg" viewBox="0 0 75.87 75.87"><defs><style>.cls-1{fill:#b9eced;}.cls-2{fill:#2f7d7f;}.cls-3{fill:#33a0a0;}.cls-4{fill:#6fcece;}</style></defs><g id="图层_2" data-name="图层 2"><g id="Map"><g id="Inventory"><g id="teleport"><path class="cls-1" d="M75.87,37.62A23,23,0,0,0,59.83,16,22.62,22.62,0,0,0,52.91,15a22.93,22.93,0,0,0-23,23,8,8,0,0,0,8,8A23,23,0,0,1,15,23,22.62,22.62,0,0,1,16,16,23,23,0,0,1,37.62,0h.63A37.94,37.94,0,0,1,75.87,37.62Z"/><path class="cls-2" d="M45.92,37.93A23,23,0,0,1,0,38.25v-.63A37.94,37.94,0,0,1,37.62,0,23,23,0,0,0,16,16,22.62,22.62,0,0,0,15,23a22.93,22.93,0,0,0,23,23A8,8,0,0,0,45.92,37.93Z"/><path class="cls-3" d="M60.9,52.91a23,23,0,0,1-22.65,23h-.63A37.94,37.94,0,0,1,0,38.25a23,23,0,0,0,45.92-.32,8,8,0,0,0-8-8,23,23,0,0,1,23,23Z"/><path class="cls-4" d="M75.87,37.93v.32A37.94,37.94,0,0,1,38.25,75.87,23,23,0,0,0,37.93,30a8,8,0,0,0-8,8,23,23,0,0,1,23-23A22.62,22.62,0,0,1,59.83,16a23,23,0,0,1,16,21.58Z"/></g></g></g></g></svg>